<svg width="20" height="12" viewBox="0 0 20 12" fill="none" xmlns="http://www.w3.org/2000/svg">
<g id="&#240;&#159;&#166;&#134; icon &#34;eye&#34;">
<path id="Vector" fill-rule="evenodd" clip-rule="evenodd" d="M10 11C6.37006 11 3.03599 9.09099 1.23648 6C3.03599 2.909 6.37006 1 10 1C13.6299 1 16.964 2.909 18.7635 6C16.964 9.09099 13.6299 11 10 11ZM19.8786 5.777C17.9234 2.214 14.1389 0 10 0C5.86111 0 2.07661 2.214 0.121438 5.777L0 6L0.121438 6.223C2.07661 9.786 5.86112 12 10 12C14.1389 12 17.9234 9.786 19.8786 6.223L20 6L19.8786 5.777ZM10 8C8.78229 8 7.79201 7.103 7.79201 6C7.79201 4.897 8.78229 4 10 4C11.2177 4 12.208 4.897 12.208 6C12.208 7.103 11.2177 8 10 8ZM10 3C8.17399 3 6.68801 4.346 6.68801 6C6.68801 7.654 8.17399 8.99999 10 8.99999C11.826 8.99999 13.312 7.654 13.312 6C13.312 4.346 11.826 3 10 3Z" fill="white"/>
</g>
</svg>
