<svg width="20" height="20" viewBox="0 0 20 20" fill="none" xmlns="http://www.w3.org/2000/svg">
<g id="&#240;&#159;&#166;&#134; icon &#34;compose&#34;">
<path id="Vector" fill-rule="evenodd" clip-rule="evenodd" d="M9.47099 3.09737V4.12778H1.05233V18.5538H15.785V11.1945H16.8373V19.5842H0V3.09737H9.47099ZM16.2726 0C16.6946 0 17.0903 0.160754 17.3871 0.452355L19.5391 2.55856C20.1536 3.16135 20.1536 4.14233 19.5391 4.7441L17.3565 6.8812L13.7165 3.31798L5.18736 11.6696L8.08234 14.5043L15.6191 7.12542L16.3631 7.85393L7.432 16.5981L1.9525 17.6708L3.04903 12.3064L15.1551 0.452355C15.4529 0.160754 15.8496 0 16.2716 0L16.2726 0ZM4.44337 12.3981L4.01928 12.8144L3.29527 16.3581L6.91424 15.6491L7.33834 15.2328L4.44337 12.3981ZM13.652 5.48786L14.396 6.21637L7.88838 12.5885L7.14438 11.86L13.652 5.48786ZM16.2726 1.03043H16.2716C16.1306 1.03043 15.999 1.08401 15.8991 1.18088L14.4605 2.58946L17.3565 5.42418L18.7951 4.01558C18.9992 3.81464 18.9992 3.488 18.7951 3.28604L16.6431 1.18087C16.5431 1.08298 16.4115 1.03043 16.2726 1.03043Z" fill="white"/>
</g>
</svg>
